<svg width="49" height="51" viewBox="0 0 49 51" fill="none" xmlns="http://www.w3.org/2000/svg">
<path d="M24.5 50.4667C38.031 50.4667 49 39.1693 49 25.2334C49 11.2974 38.031 0 24.5 0C10.969 0 0 11.2974 0 25.2334C0 39.1693 10.969 50.4667 24.5 50.4667Z" fill="#1D6382"/>
<path d="M31.2223 12.5055C28.6269 18.7542 26.0316 25.0029 23.4363 31.2516C21.7822 27.3872 20.1371 23.5161 18.4789 19.6547C17.9063 18.3212 16.3486 19.5206 16.9227 20.8575C18.8449 25.3337 20.7472 29.8247 22.6693 34.3009C22.998 35.0662 23.9003 35.084 24.2256 34.3009C27.0765 27.4367 29.9275 20.5725 32.7785 13.7083C33.3371 12.3633 31.7813 11.1594 31.2223 12.5055Z" fill="white"/>
</svg>
