<svg width="52" height="51" viewBox="0 0 52 51" fill="none" xmlns="http://www.w3.org/2000/svg">
<path d="M26 50.9043C40.3594 50.9043 52 39.509 52 25.4522C52 11.3953 40.3594 0 26 0C11.6406 0 0 11.3953 0 25.4522C0 39.509 11.6406 50.9043 26 50.9043Z" fill="#1D6382"/>
<path d="M34.8244 12.614C31.363 18.9168 27.9015 25.2197 24.4401 31.5226C22.234 27.6247 20.04 23.72 17.8285 19.8252C17.0647 18.48 14.9872 19.6899 15.7529 21.0384C18.3166 25.5534 20.8536 30.0833 23.4173 34.5983C23.8556 35.3703 25.059 35.3882 25.4928 34.5983C29.2952 27.6746 33.0976 20.7509 36.8999 13.8272C37.645 12.4705 35.57 11.2562 34.8244 12.614Z" fill="white"/>
</svg>
