<svg width="283" height="283" viewBox="0 0 283 283" fill="none" xmlns="http://www.w3.org/2000/svg">
<g clip-path="url(#clip0_10_530)">
<path d="M27.1338 238.403L24.6488 228.602C20.2428 226.735 15.735 225.118 11.1469 223.758L10.8332 228.313L9.56115 223.295C3.87105 221.668 0 220.952 0 220.952C0 220.952 5.22757 240.836 16.1956 256.037L28.9744 258.282L19.0469 259.713C20.4266 261.373 21.9093 262.945 23.4862 264.419C39.4398 279.227 57.2093 286.021 63.1752 279.594C69.1411 273.166 61.0444 255.951 45.0909 241.145C40.1451 236.554 33.9323 232.87 27.713 229.97L27.1338 238.403Z" fill="#F2F2F2"/>
<path d="M50.7662 227.757L53.705 218.083C50.8988 214.207 47.8761 210.493 44.6515 206.957L42.0286 210.694L43.5332 205.741C39.5023 201.409 36.5586 198.796 36.5586 198.796C36.5586 198.796 30.7571 218.519 32.2875 237.201L42.0665 245.728L32.8266 241.821C33.1499 243.956 33.6071 246.068 34.1956 248.145C40.1982 269.068 51.8977 284.07 60.327 281.651C68.7563 279.233 70.7238 260.311 64.7212 239.388C62.8605 232.902 59.4459 226.537 55.621 220.84L50.7662 227.757Z" fill="#F2F2F2"/>
<path d="M196.887 67.0429H195.337V24.5783C195.337 21.3506 194.701 18.1546 193.466 15.1726C192.23 12.1906 190.42 9.48113 188.138 7.19882C185.855 4.91651 183.146 3.10609 180.164 1.87091C177.182 0.635735 173.986 0 170.758 0H80.7883C74.2698 0 68.0182 2.58949 63.4088 7.19882C58.7995 11.8081 56.21 18.0597 56.21 24.5783V257.546C56.21 260.774 56.8458 263.97 58.0809 266.952C59.3161 269.934 61.1265 272.643 63.4088 274.926C65.6911 277.208 68.4006 279.018 71.3826 280.254C74.3646 281.489 77.5607 282.125 80.7883 282.125H170.758C177.277 282.124 183.528 279.535 188.138 274.926C192.747 270.316 195.336 264.065 195.336 257.546V97.27H196.886L196.887 67.0429Z" fill="#E6E6E6"/>
<path d="M171.75 6.39206H160.007C160.547 7.71622 160.753 9.1529 160.607 10.5755C160.461 11.9981 159.968 13.363 159.17 14.5499C158.372 15.7368 157.295 16.7092 156.033 17.3816C154.77 18.054 153.362 18.4057 151.932 18.4056H100.389C98.9595 18.4056 97.5514 18.0538 96.2894 17.3814C95.0273 16.7089 93.95 15.7364 93.1524 14.5496C92.3547 13.3627 91.8612 11.9979 91.7152 10.5753C91.5693 9.15277 91.7755 7.71616 92.3155 6.39206H81.3467C76.4787 6.39206 71.8101 8.32587 68.3679 11.7681C64.9257 15.2103 62.9919 19.8789 62.9919 24.7469V257.377C62.9919 262.245 64.9257 266.913 68.3679 270.355C71.8101 273.798 76.4787 275.731 81.3467 275.731H171.75C176.618 275.731 181.287 273.798 184.729 270.355C188.171 266.913 190.105 262.245 190.105 257.377V24.7465C190.105 19.8786 188.171 15.2101 184.729 11.7679C181.287 8.32581 176.618 6.39206 171.75 6.39206Z" fill="white"/>
<path d="M115.029 99.0599C115.028 97.4338 115.456 95.8363 116.27 94.4283C117.083 93.0202 118.253 91.8512 119.661 91.0389C118.253 90.2258 116.656 89.7976 115.03 89.7974C113.404 89.7972 111.807 90.2251 110.399 91.0379C108.991 91.8508 107.821 93.02 107.008 94.428C106.195 95.8361 105.767 97.4334 105.767 99.0593C105.767 100.685 106.195 102.282 107.008 103.691C107.821 105.099 108.991 106.268 110.399 107.081C111.807 107.894 113.404 108.321 115.03 108.321C116.656 108.321 118.253 107.893 119.661 107.08C118.253 106.268 117.083 105.099 116.27 103.691C115.456 102.283 115.028 100.686 115.029 99.0599Z" fill="#CCCCCC"/>
<path d="M126.672 99.0599C126.672 97.4338 127.1 95.8363 127.913 94.4282C128.726 93.0202 129.896 91.8512 131.305 91.0389C129.897 90.2258 128.3 89.7976 126.674 89.7974C125.048 89.7972 123.451 90.2251 122.042 91.0379C120.634 91.8508 119.465 93.02 118.652 94.428C117.839 95.8361 117.411 97.4334 117.411 99.0593C117.411 100.685 117.839 102.282 118.652 103.691C119.465 105.099 120.634 106.268 122.042 107.081C123.451 107.894 125.048 108.321 126.674 108.321C128.3 108.321 129.897 107.893 131.305 107.08C129.896 106.268 128.727 105.099 127.913 103.691C127.1 102.283 126.672 100.686 126.672 99.0599Z" fill="#CCCCCC"/>
<path d="M138.051 108.321C143.166 108.321 147.313 104.175 147.313 99.0595C147.313 93.9443 143.166 89.7976 138.051 89.7976C132.936 89.7976 128.789 93.9443 128.789 99.0595C128.789 104.175 132.936 108.321 138.051 108.321Z" fill="#1D6382"/>
<path d="M153.53 127.988H99.5497C99.0358 127.987 98.5431 127.783 98.1797 127.42C97.8163 127.056 97.6119 126.564 97.6113 126.05V72.0693C97.6119 71.5554 97.8163 71.0627 98.1797 70.6993C98.5431 70.3359 99.0358 70.1315 99.5497 70.1309H153.53C154.044 70.1315 154.537 70.3359 154.9 70.6993C155.263 71.0627 155.468 71.5554 155.468 72.0693V126.05C155.468 126.564 155.263 127.056 154.9 127.42C154.537 127.783 154.044 127.987 153.53 127.988ZM99.5497 70.9067C99.2414 70.907 98.9457 71.0296 98.7277 71.2477C98.5097 71.4657 98.3871 71.7613 98.3868 72.0697V126.05C98.3871 126.358 98.5097 126.654 98.7277 126.872C98.9457 127.09 99.2414 127.213 99.5497 127.213H153.53C153.838 127.213 154.134 127.09 154.352 126.872C154.57 126.654 154.693 126.358 154.693 126.05V72.0697C154.693 71.7613 154.57 71.4657 154.352 71.2477C154.134 71.0296 153.838 70.907 153.53 70.9067H99.5497Z" fill="#CCCCCC"/>
<path d="M165.583 169.367H82.7934V170.142H165.583V169.367Z" fill="#CCCCCC"/>
<path d="M85.4079 164.525C86.8519 164.525 88.0225 163.355 88.0225 161.911C88.0225 160.467 86.8519 159.296 85.4079 159.296C83.964 159.296 82.7934 160.467 82.7934 161.911C82.7934 163.355 83.964 164.525 85.4079 164.525Z" fill="#1D6382"/>
<path d="M165.583 195.511H82.7934V196.286H165.583V195.511Z" fill="#CCCCCC"/>
<path d="M85.4079 190.67C86.8519 190.67 88.0225 189.499 88.0225 188.055C88.0225 186.611 86.8519 185.441 85.4079 185.441C83.964 185.441 82.7934 186.611 82.7934 188.055C82.7934 189.499 83.964 190.67 85.4079 190.67Z" fill="#1D6382"/>
<path d="M164.068 225.282H137.904C137.452 225.282 137.019 225.102 136.699 224.782C136.38 224.463 136.2 224.029 136.2 223.577V214.407C136.2 213.955 136.38 213.522 136.699 213.202C137.019 212.883 137.452 212.703 137.904 212.703H164.068C164.52 212.703 164.953 212.883 165.273 213.202C165.592 213.522 165.772 213.955 165.773 214.407V223.577C165.772 224.029 165.592 224.463 165.273 224.782C164.953 225.102 164.52 225.282 164.068 225.282Z" fill="#1D6382"/>
<path d="M93.9364 164.525C95.3804 164.525 96.551 163.355 96.551 161.911C96.551 160.467 95.3804 159.296 93.9364 159.296C92.4925 159.296 91.3219 160.467 91.3219 161.911C91.3219 163.355 92.4925 164.525 93.9364 164.525Z" fill="#1D6382"/>
<path d="M102.465 164.525C103.909 164.525 105.08 163.355 105.08 161.911C105.08 160.467 103.909 159.296 102.465 159.296C101.021 159.296 99.8505 160.467 99.8505 161.911C99.8505 163.355 101.021 164.525 102.465 164.525Z" fill="#1D6382"/>
<path d="M93.9364 190.67C95.3804 190.67 96.551 189.499 96.551 188.055C96.551 186.611 95.3804 185.441 93.9364 185.441C92.4925 185.441 91.3219 186.611 91.3219 188.055C91.3219 189.499 92.4925 190.67 93.9364 190.67Z" fill="#1D6382"/>
<path d="M102.465 190.67C103.909 190.67 105.08 189.499 105.08 188.055C105.08 186.611 103.909 185.441 102.465 185.441C101.021 185.441 99.8505 186.611 99.8505 188.055C99.8505 189.499 101.021 190.67 102.465 190.67Z" fill="#1D6382"/>
<path d="M281.102 283H9.12172C8.53949 283 8.06787 282.793 8.06787 282.539C8.06787 282.284 8.53949 282.077 9.12172 282.077H281.102C281.684 282.077 282.156 282.284 282.156 282.539C282.156 282.794 281.684 283 281.102 283Z" fill="#3F3D56"/>
<path d="M213.905 185.413C214.091 185.498 214.27 185.597 214.439 185.711L231.43 178.459L232.036 173.984L238.825 173.942L238.424 184.207L215.999 190.138C215.951 190.294 215.895 190.446 215.829 190.595C215.505 191.287 214.983 191.868 214.33 192.264C213.677 192.661 212.922 192.856 212.158 192.824C211.395 192.792 210.658 192.536 210.04 192.087C209.422 191.638 208.95 191.016 208.684 190.3C208.418 189.583 208.37 188.804 208.545 188.061C208.72 187.317 209.111 186.642 209.669 186.12C210.227 185.598 210.927 185.252 211.68 185.126C212.434 185 213.208 185.1 213.905 185.413Z" fill="#FFB8B8"/>
<path d="M241.294 278.433H236.65L234.441 260.52L241.295 260.52L241.294 278.433Z" fill="#FFB8B8"/>
<path d="M233.333 277.106H242.289V282.745H227.693C227.693 281.25 228.287 279.815 229.345 278.758C230.403 277.7 231.837 277.106 233.333 277.106Z" fill="#2F2E41"/>
<path d="M259.356 277.121L254.734 277.576L250.779 259.966L257.6 259.294L259.356 277.121Z" fill="#FFB8B8"/>
<path d="M251.303 276.581L260.216 275.703L260.769 281.315L246.243 282.746C246.171 282.009 246.244 281.265 246.459 280.556C246.674 279.847 247.027 279.188 247.496 278.615C247.966 278.043 248.544 277.569 249.197 277.219C249.85 276.87 250.566 276.653 251.303 276.581Z" fill="#2F2E41"/>
<path d="M242.587 154.984C247.725 154.984 251.891 150.819 251.891 145.68C251.891 140.542 247.725 136.376 242.587 136.376C237.448 136.376 233.283 140.542 233.283 145.68C233.283 150.819 237.448 154.984 242.587 154.984Z" fill="#FFB8B8"/>
<path d="M235.612 274.81C235.213 274.812 234.826 274.672 234.52 274.415C234.214 274.159 234.009 273.803 233.94 273.41C231.536 260.066 223.679 216.435 223.491 215.226C223.487 215.199 223.485 215.171 223.485 215.142V211.889C223.484 211.771 223.521 211.655 223.591 211.559L224.629 210.105C224.678 210.035 224.743 209.977 224.818 209.936C224.893 209.895 224.976 209.872 225.062 209.868C230.98 209.591 250.36 208.778 251.297 209.948C252.237 211.123 251.905 214.685 251.829 215.387L251.832 215.461L260.539 271.144C260.607 271.588 260.498 272.041 260.235 272.405C259.971 272.769 259.575 273.015 259.132 273.089L253.694 273.985C253.289 274.05 252.874 273.967 252.524 273.752C252.175 273.537 251.914 273.204 251.79 272.813C250.108 267.439 244.468 249.358 242.513 242.362C242.501 242.318 242.473 242.279 242.435 242.254C242.396 242.229 242.35 242.219 242.304 242.225C242.259 242.231 242.217 242.254 242.187 242.289C242.158 242.324 242.141 242.369 242.142 242.415C242.24 249.084 242.476 266.099 242.557 271.976L242.566 272.609C242.569 273.037 242.412 273.451 242.125 273.77C241.838 274.088 241.442 274.287 241.015 274.327L235.771 274.803C235.718 274.808 235.665 274.81 235.612 274.81Z" fill="#2F2E41"/>
<path d="M236.682 158.643C235.058 159.608 234.087 161.382 233.529 163.186C232.497 166.528 231.876 169.983 231.679 173.475L231.09 183.93L223.796 211.647C230.118 216.996 233.764 215.781 242.274 211.405C250.784 207.03 251.757 212.864 251.757 212.864L253.459 189.28L255.89 163.509C255.344 162.852 254.727 162.258 254.048 161.738C251.801 159.991 249.186 158.776 246.401 158.186C243.616 157.596 240.734 157.645 237.971 158.331L236.682 158.643Z" fill="#1D6382"/>
<path d="M234.313 191.011C234.509 191.084 234.699 191.174 234.881 191.277L251.681 182.869L251.96 178.313L258.89 177.836L259.261 188.22L236.811 195.644C236.627 196.43 236.209 197.142 235.611 197.685C235.014 198.228 234.265 198.576 233.464 198.682C232.664 198.789 231.85 198.65 231.131 198.283C230.412 197.916 229.822 197.339 229.439 196.628C229.056 195.917 228.898 195.107 228.987 194.304C229.076 193.502 229.406 192.745 229.936 192.136C230.465 191.526 231.167 191.092 231.949 190.891C232.731 190.69 233.555 190.732 234.313 191.011Z" fill="#FFB8B8"/>
<path d="M255.768 163.627C259.902 165.086 260.63 180.891 260.63 180.891C255.767 178.216 249.932 182.593 249.932 182.593C249.932 182.593 248.716 178.459 247.257 173.11C246.817 171.606 246.764 170.014 247.104 168.484C247.444 166.953 248.166 165.534 249.202 164.357C249.202 164.357 251.635 162.167 255.768 163.627Z" fill="#1D6382"/>
<path d="M250.929 148.141C249.77 147.213 248.189 148.899 248.189 148.899L247.261 140.552C247.261 140.552 241.465 141.247 237.755 140.321C234.046 139.395 233.466 143.683 233.466 143.683C233.275 141.951 233.236 140.205 233.35 138.466C233.582 136.38 236.596 134.293 241.929 132.902C247.261 131.511 250.043 137.539 250.043 137.539C253.753 139.393 252.088 149.068 250.929 148.141Z" fill="#2F2E41"/>
</g>
<defs>
<clipPath id="clip0_10_530">
<rect width="282.156" height="283" fill="white"/>
</clipPath>
</defs>
</svg>
