<svg width="286" height="276" viewBox="0 0 286 276" fill="none" xmlns="http://www.w3.org/2000/svg">
<g clip-path="url(#clip0_10_530)">
<path d="M27.4427 232.506L24.9294 222.948C20.4733 221.127 15.9141 219.549 11.2738 218.223L10.9565 222.665L9.67002 217.771C3.91513 216.185 0 215.487 0 215.487C0 215.487 5.28709 234.879 16.38 249.704L29.3043 251.893L19.2638 253.289C20.6592 254.908 22.1587 256.441 23.7536 257.878C39.8888 272.32 57.8607 278.947 63.8945 272.678C69.9283 266.409 61.7395 249.621 45.6043 235.18C40.6022 230.703 34.3186 227.11 28.0285 224.281L27.4427 232.506Z" fill="#F2F2F2"/>
<path d="M51.3442 222.124L54.3165 212.689C51.4783 208.909 48.4212 205.286 45.1599 201.838L42.5071 205.483L44.0289 200.652C39.9521 196.427 36.9748 193.878 36.9748 193.878C36.9748 193.878 31.1073 213.114 32.6551 231.334L42.5454 239.65L33.2003 235.84C33.5273 237.922 33.9897 239.982 34.5849 242.007C40.6559 262.413 52.4886 277.043 61.0139 274.685C69.5391 272.326 71.5291 253.872 65.4581 233.467C63.5762 227.141 60.1227 220.933 56.2544 215.377L51.3442 222.124Z" fill="#F2F2F2"/>
<path d="M199.128 65.3846H197.561V23.9704C197.561 20.8225 196.918 17.7055 195.668 14.7973C194.419 11.8891 192.588 9.24661 190.28 7.02076C187.972 4.7949 185.231 3.02926 182.215 1.82463C179.199 0.62001 175.967 0 172.703 0H81.7082C75.1154 0 68.7926 2.52544 64.1308 7.02076C59.469 11.5161 56.85 17.613 56.85 23.9704V251.176C56.85 254.324 57.493 257.441 58.7423 260.349C59.9915 263.257 61.8225 265.9 64.1308 268.125C66.4391 270.351 69.1795 272.117 72.1954 273.322C75.2113 274.526 78.4438 275.146 81.7082 275.146H172.703C179.295 275.146 185.618 272.621 190.28 268.125C194.941 263.63 197.56 257.533 197.56 251.176V94.864H199.128L199.128 65.3846Z" fill="#E6E6E6"/>
<path d="M173.706 6.23393H161.829C162.375 7.52534 162.583 8.92648 162.436 10.3139C162.288 11.7013 161.789 13.0324 160.982 14.19C160.175 15.3475 159.086 16.2959 157.809 16.9517C156.533 17.6074 155.108 17.9504 153.662 17.9503H101.533C100.086 17.9503 98.6621 17.6072 97.3857 16.9514C96.1093 16.2956 95.0197 15.3472 94.213 14.1897C93.4062 13.0321 92.9071 11.7011 92.7595 10.3137C92.6119 8.92636 92.8204 7.52529 93.3666 6.23393H82.2729C77.3495 6.23393 72.6277 8.11991 69.1463 11.477C65.6649 14.834 63.7091 19.3872 63.7091 24.1348V251.01C63.7091 255.758 65.6649 260.311 69.1463 263.668C72.6277 267.025 77.3495 268.911 82.2729 268.911H173.706C178.629 268.911 183.351 267.025 186.832 263.668C190.314 260.311 192.269 255.758 192.269 251.01V24.1344C192.269 19.3869 190.313 14.8338 186.832 11.4768C183.351 8.11986 178.629 6.23393 173.706 6.23393Z" fill="white"/>
<path d="M116.338 96.6096C116.338 95.0238 116.771 93.4658 117.593 92.0926C118.416 90.7194 119.599 89.5793 121.024 88.7871C119.6 87.994 117.984 87.5764 116.34 87.5763C114.696 87.5761 113.08 87.9933 111.656 88.7861C110.232 89.5788 109.049 90.7191 108.227 92.0924C107.405 93.4656 106.972 95.0234 106.972 96.6091C106.972 98.1948 107.405 99.7525 108.227 101.126C109.049 102.499 110.232 103.639 111.656 104.432C113.08 105.225 114.696 105.642 116.34 105.642C117.984 105.642 119.6 105.224 121.024 104.431C119.599 103.639 118.416 102.499 117.594 101.126C116.771 99.7531 116.338 98.1953 116.338 96.6096Z" fill="#CCCCCC"/>
<path d="M128.114 96.6096C128.114 95.0238 128.547 93.4658 129.369 92.0926C130.192 90.7193 131.375 89.5792 132.8 88.7871C131.376 87.994 129.761 87.5764 128.116 87.5763C126.472 87.5761 124.856 87.9933 123.432 88.7861C122.008 89.5788 120.825 90.7191 120.003 92.0924C119.181 93.4656 118.748 95.0234 118.748 96.6091C118.748 98.1948 119.181 99.7525 120.003 101.126C120.825 102.499 122.008 103.639 123.432 104.432C124.856 105.225 126.472 105.642 128.116 105.642C129.761 105.642 131.376 105.224 132.8 104.431C131.375 103.639 130.192 102.499 129.37 101.126C128.547 99.7531 128.114 98.1953 128.114 96.6096Z" fill="#CCCCCC"/>
<path d="M139.623 105.642C144.796 105.642 148.99 101.598 148.99 96.6092C148.99 91.6206 144.796 87.5764 139.623 87.5764C134.45 87.5764 130.256 91.6206 130.256 96.6092C130.256 101.598 134.45 105.642 139.623 105.642Z" fill="#1D6382"/>
<path d="M155.278 124.822H100.683C100.163 124.822 99.6651 124.622 99.2976 124.268C98.9301 123.914 98.7234 123.433 98.7228 122.932V70.2867C98.7234 69.7855 98.9301 69.305 99.2976 68.9506C99.6651 68.5962 100.163 68.3968 100.683 68.3962H155.278C155.798 68.3968 156.296 68.5962 156.664 68.9506C157.031 69.305 157.238 69.7855 157.239 70.2867V122.932C157.238 123.433 157.031 123.914 156.664 124.268C156.296 124.622 155.798 124.822 155.278 124.822ZM100.683 69.1529C100.371 69.1532 100.072 69.2727 99.8518 69.4854C99.6313 69.698 99.5073 69.9863 99.507 70.287V122.932C99.5073 123.233 99.6313 123.521 99.8518 123.734C100.072 123.947 100.371 124.066 100.683 124.066H155.278C155.59 124.066 155.889 123.947 156.11 123.734C156.33 123.521 156.454 123.233 156.454 122.932V70.287C156.454 69.9863 156.33 69.698 156.11 69.4854C155.889 69.2727 155.59 69.1532 155.278 69.1529H100.683Z" fill="#CCCCCC"/>
<path d="M167.468 165.177H83.7361V165.934H167.468V165.177Z" fill="#CCCCCC"/>
<path d="M86.3804 160.456C87.8408 160.456 89.0247 159.314 89.0247 157.906C89.0247 156.498 87.8408 155.356 86.3804 155.356C84.92 155.356 83.7361 156.498 83.7361 157.906C83.7361 159.314 84.92 160.456 86.3804 160.456Z" fill="#1D6382"/>
<path d="M167.468 190.675H83.7361V191.431H167.468V190.675Z" fill="#CCCCCC"/>
<path d="M86.3804 185.953C87.8408 185.953 89.0247 184.812 89.0247 183.404C89.0247 181.995 87.8408 180.854 86.3804 180.854C84.92 180.854 83.7361 181.995 83.7361 183.404C83.7361 184.812 84.92 185.953 86.3804 185.953Z" fill="#1D6382"/>
<path d="M165.936 219.71H139.474C139.017 219.709 138.579 219.534 138.256 219.222C137.933 218.911 137.751 218.488 137.75 218.047V209.104C137.751 208.663 137.933 208.24 138.256 207.929C138.579 207.617 139.017 207.442 139.474 207.441H165.936C166.393 207.442 166.831 207.617 167.155 207.929C167.478 208.24 167.66 208.663 167.66 209.104V218.047C167.66 218.488 167.478 218.911 167.155 219.222C166.831 219.534 166.393 219.709 165.936 219.71Z" fill="#1D6382"/>
<path d="M95.006 160.456C96.4664 160.456 97.6503 159.314 97.6503 157.906C97.6503 156.498 96.4664 155.356 95.006 155.356C93.5456 155.356 92.3617 156.498 92.3617 157.906C92.3617 159.314 93.5456 160.456 95.006 160.456Z" fill="#1D6382"/>
<path d="M103.632 160.456C105.092 160.456 106.276 159.314 106.276 157.906C106.276 156.498 105.092 155.356 103.632 155.356C102.171 155.356 100.987 156.498 100.987 157.906C100.987 159.314 102.171 160.456 103.632 160.456Z" fill="#1D6382"/>
<path d="M95.006 185.953C96.4664 185.953 97.6503 184.812 97.6503 183.404C97.6503 181.995 96.4664 180.854 95.006 180.854C93.5456 180.854 92.3617 181.995 92.3617 183.404C92.3617 184.812 93.5456 185.953 95.006 185.953Z" fill="#1D6382"/>
<path d="M103.632 185.953C105.092 185.953 106.276 184.812 106.276 183.404C106.276 181.995 105.092 180.854 103.632 180.854C102.171 180.854 100.987 181.995 100.987 183.404C100.987 184.812 102.171 185.953 103.632 185.953Z" fill="#1D6382"/>
<path d="M284.302 276H9.2256C8.63674 276 8.15975 275.798 8.15975 275.55C8.15975 275.302 8.63674 275.1 9.2256 275.1H284.302C284.891 275.1 285.368 275.301 285.368 275.55C285.368 275.799 284.891 276 284.302 276Z" fill="#3F3D56"/>
<path d="M216.34 180.827C216.528 180.909 216.709 181.007 216.881 181.117L234.065 174.045L234.678 169.68L241.544 169.64L241.139 179.651L218.458 185.435C218.41 185.587 218.353 185.736 218.287 185.881C217.959 186.556 217.431 187.122 216.771 187.509C216.11 187.895 215.346 188.085 214.574 188.054C213.802 188.024 213.056 187.773 212.431 187.335C211.806 186.897 211.329 186.291 211.06 185.593C210.791 184.894 210.742 184.134 210.919 183.409C211.097 182.684 211.492 182.025 212.056 181.516C212.621 181.007 213.328 180.67 214.09 180.547C214.853 180.424 215.635 180.522 216.34 180.827Z" fill="#FFB8B8"/>
<path d="M244.042 271.546H239.344L237.11 254.076L244.042 254.076L244.042 271.546Z" fill="#FFB8B8"/>
<path d="M235.989 270.252H245.048V275.752H230.286C230.286 274.293 230.887 272.894 231.956 271.863C233.026 270.831 234.477 270.252 235.989 270.252Z" fill="#2F2E41"/>
<path d="M262.309 270.266L257.634 270.71L253.634 253.536L260.533 252.88L262.309 270.266Z" fill="#FFB8B8"/>
<path d="M254.164 269.739L263.179 268.883L263.738 274.357L249.047 275.752C248.974 275.033 249.048 274.307 249.265 273.616C249.483 272.925 249.839 272.282 250.314 271.724C250.789 271.165 251.374 270.703 252.035 270.362C252.695 270.022 253.419 269.81 254.164 269.739Z" fill="#2F2E41"/>
<path d="M245.349 151.151C250.546 151.151 254.759 147.088 254.759 142.077C254.759 137.066 250.546 133.003 245.349 133.003C240.152 133.003 235.939 137.066 235.939 142.077C235.939 147.088 240.152 151.151 245.349 151.151Z" fill="#FFB8B8"/>
<path d="M238.295 268.013C237.891 268.014 237.5 267.878 237.191 267.628C236.881 267.378 236.673 267.031 236.603 266.647C234.172 253.633 226.225 211.081 226.035 209.903C226.031 209.876 226.029 209.848 226.029 209.821V206.648C226.029 206.533 226.066 206.42 226.136 206.326L227.186 204.908C227.236 204.84 227.302 204.784 227.377 204.744C227.453 204.704 227.538 204.681 227.624 204.677C233.609 204.407 253.211 203.614 254.158 204.754C255.109 205.901 254.773 209.375 254.696 210.06L254.7 210.131L263.506 264.437C263.575 264.87 263.464 265.312 263.198 265.667C262.931 266.022 262.531 266.262 262.083 266.334L256.582 267.208C256.173 267.271 255.753 267.191 255.4 266.981C255.046 266.771 254.783 266.446 254.657 266.065C252.956 260.823 247.252 243.19 245.275 236.367C245.262 236.324 245.234 236.287 245.195 236.262C245.156 236.237 245.109 236.227 245.063 236.234C245.017 236.24 244.975 236.262 244.945 236.296C244.915 236.33 244.898 236.374 244.899 236.418C244.998 242.923 245.236 259.517 245.319 265.248L245.328 265.866C245.331 266.284 245.172 266.688 244.882 266.998C244.592 267.308 244.191 267.502 243.76 267.542L238.456 268.006C238.402 268.011 238.348 268.013 238.295 268.013Z" fill="#2F2E41"/>
<path d="M239.377 154.719C237.735 155.66 236.752 157.39 236.188 159.15C235.144 162.409 234.516 165.778 234.317 169.184L233.721 179.38L226.344 206.412C232.738 211.629 236.426 210.443 245.033 206.176C253.64 201.909 254.623 207.599 254.623 207.599L256.344 184.598L258.803 159.465C258.252 158.824 257.627 158.244 256.941 157.738C254.668 156.033 252.024 154.849 249.207 154.273C246.39 153.697 243.475 153.746 240.68 154.414L239.377 154.719Z" fill="#1D6382"/>
<path d="M236.981 186.286C237.179 186.358 237.372 186.445 237.556 186.546L254.547 178.345L254.829 173.903L261.837 173.437L262.213 183.564L239.507 190.805C239.322 191.572 238.898 192.266 238.294 192.795C237.689 193.325 236.932 193.664 236.123 193.768C235.313 193.872 234.49 193.736 233.763 193.378C233.036 193.02 232.439 192.457 232.051 191.764C231.664 191.071 231.504 190.281 231.594 189.498C231.684 188.716 232.019 187.978 232.554 187.383C233.089 186.788 233.799 186.365 234.59 186.169C235.381 185.973 236.215 186.014 236.981 186.286Z" fill="#FFB8B8"/>
<path d="M258.681 159.58C262.861 161.002 263.597 176.416 263.597 176.416C258.679 173.808 252.777 178.076 252.777 178.076C252.777 178.076 251.548 174.045 250.072 168.828C249.627 167.361 249.574 165.809 249.918 164.316C250.262 162.824 250.992 161.439 252.04 160.292C252.04 160.292 254.5 158.156 258.681 159.58Z" fill="#1D6382"/>
<path d="M253.786 144.476C252.614 143.572 251.014 145.216 251.014 145.216L250.076 137.076C250.076 137.076 244.214 137.753 240.463 136.85C236.711 135.947 236.125 140.129 236.125 140.129C235.931 138.44 235.892 136.737 236.007 135.041C236.242 133.006 239.29 130.971 244.683 129.614C250.076 128.258 252.89 134.137 252.89 134.137C256.642 135.945 254.959 145.381 253.786 144.476Z" fill="#2F2E41"/>
</g>
<defs>
<clipPath id="clip0_10_530">
<rect width="285.291" height="275.925" fill="white" transform="scale(1.00027)"/>
</clipPath>
</defs>
</svg>
