<svg width="56" height="67" viewBox="0 0 56 67" fill="none" xmlns="http://www.w3.org/2000/svg">
<path d="M49.5908 41.5175L23.8241 29.1916C23.8241 29.1916 22.7892 20.9416 17.9571 17.999C17.1356 16.0392 16.1905 13.8862 15.332 12.1802C13.209 7.96134 16.3935 0 13.7397 0C11.086 0 7.16303 8.3729 7.37067 10.6151C7.53006 12.3363 8.95264 15.3413 9.24652 17.9719C6.01046 19.1923 3.39991 21.2842 1.68345 22.9498C0.198053 24.3912 -0.353853 26.5417 0.22666 28.5285C1.90888 34.2856 6.11355 46.1757 12.1475 46.1757C20.1088 46.1757 22.2318 44.5835 22.2318 44.5835C22.2318 44.5835 38.6852 65.2829 50.8926 66.8752C63.1 68.4675 49.5908 41.5175 49.5908 41.5175V41.5175Z" fill="#FFB6B6"/>
</svg>
