<svg width="47" height="67" viewBox="0 0 47 67" fill="none" xmlns="http://www.w3.org/2000/svg">
<path d="M41.4311 41.5528L19.9041 29.2164C19.9041 29.2164 19.0395 20.9595 15.0024 18.0144C14.3161 16.0529 13.5265 13.898 12.8093 12.1906C11.0356 7.96811 13.6961 0 11.479 0C9.26188 0 5.98443 8.38002 6.1579 10.6241C6.29107 12.3468 7.47957 15.3544 7.7251 17.9872C5.0215 19.2087 2.84049 21.3023 1.40646 22.9694C0.165465 24.412 -0.29563 26.5643 0.189366 28.5527C1.59479 34.3147 5.10763 46.215 10.1487 46.215C16.8001 46.215 18.5738 44.6214 18.5738 44.6214C18.5738 44.6214 32.32 65.3385 42.5188 66.9321C52.7175 68.5257 41.4311 41.5528 41.4311 41.5528V41.5528Z" fill="#FFB6B6"/>
</svg>
